<svg id="visual" viewBox="0 0 900 300" width="900" height="300" xmlns="http://www.w3.org/2000/svg" xmlns:xlink="http://www.w3.org/1999/xlink" version="1.1"><rect x="0" y="0" width="900" height="300" fill="#07504a"></rect><path d="M530 300L536.5 291.7C543 283.3 556 266.7 553.5 250C551 233.3 533 216.7 525.5 200C518 183.3 521 166.7 531.3 150C541.7 133.3 559.3 116.7 559.5 100C559.7 83.3 542.3 66.7 534 50C525.7 33.3 526.3 16.7 526.7 8.3L527 0L900 0L900 8.3C900 16.7 900 33.3 900 50C900 66.7 900 83.3 900 100C900 116.7 900 133.3 900 150C900 166.7 900 183.3 900 200C900 216.7 900 233.3 900 250C900 266.7 900 283.3 900 291.7L900 300Z" fill="#3ca99e"></path><path d="M629 300L627.8 291.7C626.7 283.3 624.3 266.7 619.5 250C614.7 233.3 607.3 216.7 603.8 200C600.3 183.3 600.7 166.7 607 150C613.3 133.3 625.7 116.7 627.5 100C629.3 83.3 620.7 66.7 623.8 50C627 33.3 642 16.7 649.5 8.3L657 0L900 0L900 8.3C900 16.7 900 33.3 900 50C900 66.7 900 83.3 900 100C900 116.7 900 133.3 900 150C900 166.7 900 183.3 900 200C900 216.7 900 233.3 900 250C900 266.7 900 283.3 900 291.7L900 300Z" fill="#209186"></path><path d="M697 300L701.5 291.7C706 283.3 715 266.7 713.5 250C712 233.3 700 216.7 694.2 200C688.3 183.3 688.7 166.7 688.8 150C689 133.3 689 116.7 691.5 100C694 83.3 699 66.7 707.2 50C715.3 33.3 726.7 16.7 732.3 8.3L738 0L900 0L900 8.3C900 16.7 900 33.3 900 50C900 66.7 900 83.3 900 100C900 116.7 900 133.3 900 150C900 166.7 900 183.3 900 200C900 216.7 900 233.3 900 250C900 266.7 900 283.3 900 291.7L900 300Z" fill="#0a7970"></path><path d="M784 300L783.5 291.7C783 283.3 782 266.7 785.3 250C788.7 233.3 796.3 216.7 794.8 200C793.3 183.3 782.7 166.7 783.7 150C784.7 133.3 797.3 116.7 800.5 100C803.7 83.3 797.3 66.7 792.5 50C787.7 33.3 784.3 16.7 782.7 8.3L781 0L900 0L900 8.3C900 16.7 900 33.3 900 50C900 66.7 900 83.3 900 100C900 116.7 900 133.3 900 150C900 166.7 900 183.3 900 200C900 216.7 900 233.3 900 250C900 266.7 900 283.3 900 291.7L900 300Z" fill="#08615b"></path></svg>